<?xml version="1.0" encoding="utf-8"?>
<!-- Generator: Adobe Illustrator 16.0.0, SVG Export Plug-In . SVG Version: 6.00 Build 0)  -->
<!DOCTYPE svg PUBLIC "-//W3C//DTD SVG 1.1//EN" "http://www.w3.org/Graphics/SVG/1.1/DTD/svg11.dtd">
<svg version="1.1" id="Layer_1" xmlns="http://www.w3.org/2000/svg" xmlns:xlink="http://www.w3.org/1999/xlink" x="0px" y="0px"
	 width="612px" height="285.5px" viewBox="0 0 612 285.5" enable-background="new 0 0 612 285.5" xml:space="preserve">
<g id="Layer_8">
	<g>
		<path d="M587.34,83.937c-2.778-3.125-29.166,9.375-37.5,9.375s-51.39-10.417-67.015-13.194c-31.25-6.25-37.5,16.667-38.54,24.305
			c-1.041,7.638-8.682,15.625-24.307,4.514s-42.361-32.986-77.083-34.028c-7.155-0.215-54.86,6.25-75.348,6.597
			c-20.485,0.347-35.068-5.903-35.068-5.903s12.152-5.903,11.806-9.722c-0.348-3.819-33.681,1.389-33.681,1.389
			s19.444-11.458,19.792-13.889c0.349-2.431-59.722,5.903-59.722,5.903s4.861-7.986,3.819-10.417
			c-1.042-2.431-30.903,6.597-30.903,6.597s2.778-4.861,1.042-6.25c-1.736-1.389-32.639,13.889-32.639,13.889
			s0.346-18.402-4.167-20.833c-4.514-2.431-18.75,30.556-19.792,31.944c-1.042,1.388-14.932,13.542-18.056,18.75
			c-1.536,2.562-11.11,23.264-13.542,26.042c-2.431,2.778-13.542,22.569-14.931,23.611c-2.735,2.053-1.042,7.292-0.694,8.68
			c0.348,1.391,4.515,4.167,4.515,4.167s0.347,3.818,1.735,5.209c1.39,1.39,6.25,5.902,8.333,5.902s6.944,3.125,9.375-2.433
			c2.432-5.555,17.015-21.875,21.181-25.693c4.166-3.819,17.36-4.861,24.652-9.375c4.771-2.953,14.583-12.5,16.319-13.889
			s15.278,7.639,19.792,10.764s12.847,10.069,16.319,14.583c3.472,4.514,5.208,13.89,5.902,17.36
			c0.694,3.473-4.167,21.528-4.514,24.653s-5.555,15.625-5.555,18.75s9.375,9.027,11.805,10.068
			c2.43,1.043,8.681-1.041,13.889-1.736c5.208-0.693,27.083-0.348,27.083-0.348s2.431,5.557,7.64,7.985
			c5.208,2.433,21.875,11.808,21.875,11.808s-6.25,3.125-9.028,8.332c-2.778,5.209-9.722,5.557-11.458,5.557
			s-6.944,4.166-9.375,5.902c-2.431,1.735-3.819,7.291-3.819,7.291l27.083,1.043c0,0,1.041-7.64,2.083-9.375
			c1.042-1.736,11.807,0.692,11.807,0.692l9.375-5.207c0,0,4.86,5.207,7.292,5.902c2.431,0.693,8.333,0.348,8.333,0.348
			s4.514,4.861,8.681,5.902s16.667,2.43,19.792,1.041s-5.209-8.68-5.209-8.68s-10.069-12.152-11.805-13.195
			c-1.736-1.041-9.028,1.389-9.028,1.389l-4.514-5.207c3.818-3.125,22.917-8.682,28.125-9.028c5.208-0.348,29.86,9.028,29.86,9.028
			s21.527-29.86,23.958-32.293c2.432-2.43,29.167-9.375,41.667-24.651c7.311-8.935,22.916-28.472,29.166-32.986
			c6.25-4.514,15.278-1.042,31.599-1.389c16.319-0.347,18.401-6.598,25.693-15.973s15.974-0.694,23.265,1.042
			s27.431,8.333,58.334,0.694C593.938,117.613,590.117,87.062,587.34,83.937z M186.993,199.215
			c-2.778-0.348-6.944-9.026-6.944-9.026l9.028-14.584c0,0,8.333,9.026,11.11,11.459c2.778,2.43,8.333,12.151,8.333,12.151
			S189.77,199.563,186.993,199.215z M309.215,166.924c-3.819,7.291-11.01,26.873-21.875,34.722
			c-6.25,4.516-12.152,1.391-15.277,2.778c-3.125,1.389-19.098,12.5-19.098,12.5s-4.514-2.432-5.902-4.168
			c-1.388-1.735-3.819-4.166-3.819-4.166l5.209-3.125l3.818-5.209c0,0,6.25-0.692,7.292-1.389
			c1.041-0.693,11.807-12.152,11.111-14.236c-0.695-2.082-25.348-3.817-26.736-3.125c-1.389,0.695-3.126,7.986-5.209,9.375
			c-2.083,1.39-3.125,2.084-3.125,2.084s-2.43-5.903-2.43-9.375c0-3.473,0.693-9.375,0.693-9.375
			c1.389,0.349,32.639-1.389,36.11-2.43c3.474-1.043,34.375-11.111,37.5-11.111S313.033,159.633,309.215,166.924z"/>
	</g>
</g>
<g id="Layer_2">
	<path fill="none" stroke="#000000" d="M110.605,59.817c0,0,30.903-15.278,32.64-13.889c1.735,1.389-1.042,6.25-1.042,6.25
		s29.86-9.028,30.902-6.597s-3.818,10.417-3.818,10.417s60.068-8.333,59.722-5.903c-0.347,2.43-19.792,13.889-19.792,13.889
		s33.333-5.208,33.68-1.389c0.348,3.819-11.805,9.722-11.805,9.722s14.583,6.25,35.069,5.903
		c20.485-0.347,68.191-6.812,75.347-6.597c34.722,1.042,61.458,22.917,77.083,34.028c15.625,11.111,23.265,3.125,24.306-4.514
		c1.041-7.639,7.291-30.555,38.541-24.305c15.625,2.777,58.68,13.194,67.014,13.194s34.723-12.5,37.5-9.375
		c2.778,3.125,6.6,33.681-24.305,41.319c-30.904,7.638-51.043,1.042-58.334-0.694c-7.291-1.736-15.972-10.417-23.264-1.042
		s-9.375,15.625-25.694,15.973s-25.348-3.125-31.598,1.389c-6.25,4.514-21.856,24.052-29.166,32.986
		c-12.5,15.277-39.236,22.222-41.667,24.652c-2.432,2.43-23.958,32.292-23.958,32.292s-24.653-9.376-29.861-9.028
		s-24.305,5.903-28.125,9.028l4.515,5.208c0,0,7.292-2.432,9.027-1.39c1.736,1.042,11.807,13.194,11.807,13.194
		s8.333,7.292,5.208,8.681c-3.125,1.39-15.625-0.001-19.792-1.042s-8.682-5.901-8.682-5.901s-5.901,0.347-8.333-0.349
		c-2.431-0.694-7.292-5.901-7.292-5.901l-9.375,5.208c0,0-10.764-2.432-11.806-0.694s-2.083,9.375-2.083,9.375l-27.083-1.042
		c0,0,1.389-5.555,3.819-7.291c2.43-1.736,7.639-5.903,9.375-5.903c1.735,0,8.681-0.348,11.458-5.556
		c2.776-5.208,9.027-8.333,9.027-8.333s-16.667-9.375-21.875-11.806c-5.208-2.432-7.639-7.986-7.639-7.986
		s-21.875-0.347-27.083,0.348c-5.208,0.695-11.459,2.778-13.889,1.736c-2.431-1.042-11.806-6.944-11.806-10.069
		s5.208-15.625,5.556-18.75c0.347-3.125,5.208-21.182,4.514-24.653c-0.694-3.471-2.431-12.846-5.903-17.36
		c-3.472-4.514-11.805-11.458-16.318-14.583c-4.515-3.125-18.057-12.152-19.792-10.764c-1.736,1.388-11.55,10.936-16.319,13.889
		c-7.292,4.514-20.486,5.556-24.653,9.375s-18.75,20.139-21.18,25.693c-2.43,5.556-7.292,2.432-9.375,2.432
		s-6.944-4.514-8.333-5.902s-1.736-5.209-1.736-5.209s-4.167-2.777-4.514-4.167s-2.041-6.627,0.694-8.68
		c1.389-1.042,12.5-20.833,14.931-23.611c2.431-2.778,12.005-23.48,13.542-26.042c3.125-5.208,17.013-17.361,18.055-18.75
		c1.042-1.389,15.278-34.375,19.792-31.944C110.952,41.417,110.605,59.817,110.605,59.817z"/>
	<path fill="none" stroke="#000000" d="M232.479,170.928c1.39,0.348,32.639-1.388,36.111-2.43s34.375-11.111,37.5-11.111
		s5.556-1.041,1.735,6.25c-3.819,7.291-11.01,26.873-21.874,34.723c-6.25,4.515-12.153,1.39-15.278,2.777
		c-3.125,1.389-19.097,12.5-19.097,12.5s-4.515-2.431-5.903-4.167c-1.389-1.735-3.819-4.167-3.819-4.167l5.208-3.125l3.819-5.208
		c0,0,6.25-0.693,7.292-1.389s11.806-12.153,11.111-14.236c-0.695-2.083-25.349-3.818-26.736-3.125
		c-1.388,0.694-3.125,7.986-5.208,9.375c-2.083,1.39-3.125,2.083-3.125,2.083s-2.43-5.902-2.43-9.375
		C231.785,176.831,232.479,170.928,232.479,170.928z"/>
	<path fill="none" stroke="#000000" d="M187.687,172.316l-9.027,14.584c0,0,4.167,8.68,6.943,9.026c2.777,0.348,21.528,0,21.528,0
		s-5.556-9.722-8.333-12.151C196.021,181.345,187.687,172.316,187.687,172.316z"/>
</g>
<g id="Layer_6">
	<path fill="#CCCCCC" d="M204.911,133.039c0.667,3,2,22.667,3,26.667s9.667,23,11,30s3.333,18.666,4.666,20.333s6.333,4.001,8,5.334
		s9.667,6.333,11,7.333s4.333,2.333,5,0.333s-8.334-17.334-9.667-20s-11.666-25.999-3.333-38.666c2-3,1-35.334,1-35.334
		s18.667,0.667,23,9.333s7.666,16.334,0.333,23s17.667-1.001,24.667-4.334s30.667-11.332,30.667-11.332s5-8.667,5-12.333
		s-3.666-4-3.334-7c0.333-3,3.666-5.333,0.334-10c-3.333-4.667-57.333-4.667-57.333-4.667s-39.334-2.667-40.667,0.666
		S204.911,133.039,204.911,133.039z"/>
	<path fill="#CCCCCC" d="M348.244,119.372c0,0,13.334-7.667,25.666-7c12.334,0.667,42.334,2.334,42.334,2.334
		s7.332,7.333,16.332,8.333s17.334,1.333,20-3c2.668-4.333,1.669-22.333,7.335-26s22-5,22-5s37.665,9.667,44.665,11
		s30,4,35.668,0.667c5.666-3.333,18.666-11.667,18.666-11.667s4-2.667,4-1s-2.334,10.667-2.334,10.667s-6.331,9.667-10.666,13.333
		c-4.334,3.666-14,6.333-21,7.333s-20.334,3-34.666-0.333c-14.334-3.333-33.002-9-35.668-7.667
		c-2.665,1.333-11.666,17.333-14,18.667c-2.332,1.334-14.666,3.333-18,3.333c-3.332,0-24-0.667-26-0.333s-17,19.667-20,23.667
		s-28.331,25.999-30.666,26.666c-2.334,0.667-25.334,10.667-25.334,10.667s-12.427,4.804-14.998,9
		c-6.334,10.333-24,6.999-26.667,7.333s-28,11.668-29.333,12.334s-20.667,16-22.667,17s-10.667,2.667-10-2s1.667-6.334,1.667-6.334
		l24.333-12.666c0,0,26-8.666,28.667-11s3.666-11,3.666-12.667s23.666-22.333,23.666-22.333s3.668-11.999,8.668-18
		c5-6,15.666-20,15.666-23.333s-4.666-11.667-4.666-11.667L348.244,119.372z"/>
	<path fill="#CCCCCC" d="M104.577,45.039c1,0.667-5.667,3.667-9.667,17.667s-4.667,25.333-4,29s9.001,11.333,7.334,18.333
		s-5.333,15.333-5.333,15.333l-2,2.333c0,0,14.667-3.333,18.667-6.333s14.666-13.333,14.666-13.333l2.333,0.667
		c0,0-0.667-4.333-2.333-10s-4.667-13.667-4.667-13.667l-3.333-7.667l-10,1.667l-2.333-3.667c0,0,3.333-18.334,3.333-21.667
		S104.577,45.039,104.577,45.039z"/>
	<path fill="#CCCCCC" d="M42.074,141.605c-1.199,1.198-1.998,3.329-1.998,3.329s-1.465-0.267-1.199,0.399s0.4,4.263,1.865,4.396
		s3.329-1.465,3.329-1.465l1.197-3.329c0,0,1.065-2.53,0.533-2.796s-1.598,2.663-1.598,2.663s-0.267,4.261-2.13,3.329
		c-1.864-0.932-2.131-1.198-0.8-2.796c1.332-1.598,1.998-1.065,1.998-1.065l1.731-2.53L42.074,141.605z"/>
	<path fill="#CCCCCC" d="M71.904,130.419c0,0-9.722,10.121-11.054,12.118s-3.861,16.379-3.861,16.379s5.727-1.466,7.458-6.525
		c1.73-5.06,13.449-20.506,13.449-20.506s-2.929,0-4.261-0.266S71.904,130.419,71.904,130.419z"/>
	<path fill="#CCCCCC" d="M70.438,93.666l-4.66,10.653c0,0,2.13-2.53,2.662-1.465c0.533,1.065,0,9.188-5.06,16.246
		c4.927-4.794,6.525-12.65,7.324-15.713s1.198-7.058,1.73-8.39c0.533-1.332-0.666-0.133-1.73-0.266
		C69.639,94.598,70.438,93.666,70.438,93.666z"/>
	<path fill="#CCCCCC" d="M139.018,64.103c0,0,1.198,3.063,2.397,3.862c1.199,0.799,4.128-0.666,4.128-0.666
		s14.781-7.19,16.379-8.922s1.731-2.264,1.731-2.264l2.396-4.128c0,0-10.387,3.329-11.319,3.862
		C153.799,56.38,139.018,64.103,139.018,64.103z"/>
	<path fill="#CCCCCC" d="M182.296,64.103c0,0,0.4,1.864,0.933,2.397c0.533,0.533,16.779-2.53,17.978-2.796
		s13.716-4.128,15.713-5.859s3.995-3.729,3.995-3.729s-13.316,4.794-18.776,6.125s-19.708,3.196-19.708,3.196L182.296,64.103z"/>
	<path fill="#CCCCCC" d="M203.869,69.962l5.858,1.865c0,0,18.776-1.864,21.573-2.53s6.924-2.796,6.658-3.862
		s-2.663,0.533-6.125,1.465c-3.462,0.932-19.442,2.664-21.573,2.93S203.869,69.962,203.869,69.962z"/>
	<path fill="#CCCCCC" d="M220.382,79.284c0,0,27.565,4.528,27.299,6.392c-0.266,1.864-21.307,2.663-21.307,2.663
		s4.528-1.464,4.528-2.929S220.382,79.284,220.382,79.284z"/>
	<path fill="#CCCCCC" d="M377.781,82.081c0.399,0.666,1.066,1.464,0.533,1.731s-3.729,0.399-3.729,0.399s20.374,11.452,23.171,13.45
		s22.638,15.847,24.103,16.779s7.06,4.395,10.787,3.995c-1.998-0.799-8.257-1.865-14.915-7.99s-14.776-14.922-18.775-17.444
		C384.174,83.679,377.781,82.081,377.781,82.081z"/>
	<path fill="#CCCCCC" d="M448.891,95.531c0,0-1.198,7.058-1.198,9.588c0,2.53-0.001,8.789-0.933,10.387
		c-0.932,1.598-0.532-0.666-1.997-2.264c-1.465-1.598-1.863-1.599-1.598-2.797c0.265-1.198,0.932-6.924,0.932-7.324
		s0.267-4.661,0.933-5.193C445.696,97.396,448.891,95.531,448.891,95.531z"/>
	<path fill="#CCCCCC" d="M249.016,183.338c0,0-1.52,3.929-1.772,5.068c-0.253,1.139-0.507,5.32-0.253,5.827s6.208-2.534,7.854-3.802
		c1.647-1.267,6.968-8.107,6.968-8.107l0.635,1.268l3.42-0.381l0.76-2.153c0,0-10.389,1.395-11.276,1.395
		C254.464,182.452,249.016,183.338,249.016,183.338z"/>
	<path fill="#CCCCCC" d="M177.308,194.613l-3.167,3.928c0,0,0,6.589,0.38,6.462c0.381-0.127,7.855-0.381,7.855-0.381l7.981,0.634
		l2.914-2.026c0,0-5.321-1.773-10.643-3.167C177.308,198.668,177.308,194.613,177.308,194.613z"/>
	<polygon fill="#CCCCCC" points="272.708,205.004 269.541,204.497 252.819,218.561 253.831,219.827 263.333,213.999 	"/>
	<path fill="#CCCCCC" d="M282.21,236.551c0,0,2.788,6.081,3.928,7.603c1.141,1.521,9.755,5.447,9.755,5.447l-0.634-2.406
		c0,0-7.854-8.996-9.122-9.884C284.869,236.424,282.21,236.551,282.21,236.551z"/>
	<path fill="#CCCCCC" d="M225.199,251.247c0,0,1.014,1.901,1.521,2.154s5.955,0,5.955,0s0.633-9.249,1.14-9.629
		c0.508-0.381,0.508-1.646-0.507-2.28c-1.014-0.634-4.561,0.379-4.813,1.14C228.241,243.394,225.199,251.247,225.199,251.247z"/>
	<path fill="#CCCCCC" d="M169.201,140.897l-2.154,3.928l5.828,7.603c0,0-0.633-3.675-0.887-5.195s-0.381-4.561-0.508-5.068
		S169.201,140.897,169.201,140.897z"/>
	<path fill="#CCCCCC" d="M139.808,50.438c0.507-0.253,4.688-3.041,4.688-3.041s-0.887-1.14-3.294-0.887
		c-2.407,0.253-6.208,1.267-6.208,1.267s-2.407,4.688-14.696,11.529C127.012,56.14,139.808,50.438,139.808,50.438z"/>
	<path fill="#CCCCCC" d="M150.45,51.198c0,0-0.634,2.028-2.534,3.041c-1.901,1.013-5.321,3.041-5.321,3.041l25.845-6.841
		c0,0,5.447-2.914,5.321-3.801c-0.126-0.887-0.887-1.141-5.448-0.38C163.752,47.019,150.45,51.198,150.45,51.198z"/>
	<path fill="#CCCCCC" d="M183.517,55.886c0,0-1.646,1.394-3.674,2.28c-2.028,0.886-8.995,2.787-8.995,2.787l24.958-4.181
		c0,0-8.742,0.887-10.009,0.38C184.531,56.645,183.517,55.886,183.517,55.886z"/>
	<path fill="#CCCCCC" d="M249.398,77.678c0,0,10.263,0.76,14.95,1.013c4.688,0.253,21.665-0.126,21.665-0.126s1.142,0,1.015,0.633
		c-0.127,0.633-14.063,3.041-19.765,3.041s-16.85-1.013-17.736-1.773C248.639,79.706,249.398,77.678,249.398,77.678z"/>
</g>
<g id="Layer_5">
	<path fill="#999999" d="M425.105,131.637c-2.643,0-10.863,0.146-13.212,2.789c-2.349,2.643-19.263,23.171-26.569,29.8
		c-14.238,12.918-33.322,18.643-38.606,20.99c-5.284,2.349-21.434,11.306-20.258,13.065c1.175,1.76,7.191-2.203,7.485-1.028
		s-6.165,8.66-7.633,9.248s-7.487,4.257-12.185,2.202c-4.698-2.055-1.614-3.229-1.614-3.229s-9.249,0.882-10.716,1.321
		c-1.467,0.44-4.697,4.403-5.872,5.138c-1.175,0.735-26.277,13.946-27.451,14.975c-1.174,1.027-13.799,9.688-15.267,10.274
		s-3.816,0-3.816,0s-2.349,1.763-3.522,1.908c-1.174,0.146-3.229,0.146-3.229,0.146s1.448,3.692,2.937,4.845
		c1.487,1.152,7.779-2.789,7.779-2.789l16.625-13.768c0,0,22.333-10.855,29.616-12.949c11.743-3.376,22.607-2.644,24.368-3.523
		s10.275-8.661,13.357-11.01s32.735-16.882,37.434-20.258s30.337-25.233,37.727-41.249
		C415.123,132.811,425.105,131.637,425.105,131.637z"/>
	<path fill="#999999" d="M346.717,126.645c1.204,1.488,0.587,4.845-2.202,9.102s-13.357,27.743-14.532,30.681
		c-1.175,2.937-7.635,20.991-13.945,25.103c-6.313,4.109-7.046,5.285-9.981,3.229c-2.936-2.056-3.67-2.349-4.698-1.468
		c-1.027,0.881-1.32,7.634-1.32,7.634s-7.928,6.019-11.598,8.808s-30.093,15.414-34.35,16.44c-4.257,1.027,0,0,0,0
		s30.974-19.67,39.635-28.331s10.862-15.121,11.597-17.615c0.735-2.495,7.779-21.285,11.598-26.863
		c3.817-5.578,4.258-8.221,3.522-8.955c-0.734-0.734-1.908,0.44-1.908,0.44s1.027-3.963,1.908-4.404
		C321.323,140.003,344.222,123.562,346.717,126.645z"/>
	<path fill="#999999" d="M257.907,162.904c0,0,14.386-2.643,19.671-4.697s10.274-4.991,13.211-6.313
		c2.936-1.322,9.981-3.67,14.386-4.697c4.403-1.027,4.697-3.963,7.927-3.083c3.23,0.88,4.552,0.734,3.817,3.523
		c-0.735,2.789-9.689,5.578-12.479,6.458s-31.561,10.57-35.084,11.305c-3.522,0.734-8.366,0.734-9.688-0.44
		C258.348,163.786,257.907,162.904,257.907,162.904z"/>
	<path fill="#999999" d="M224.244,241.705c-1.274,1.057-3.477,0.176-5.237,1.057s-9.542,9.688-9.542,9.688s8.074-0.295,9.982-0.588
		c1.907-0.293,6.312-0.44,6.312-0.44c0.41-0.457,0.497-5.089,0.322-5.875S224.244,241.705,224.244,241.705"/>
	<path fill="#999999" d="M223.972,212.531c0,0,4.314-0.604,4.916-0.401c0.603,0.202,0.702,2.408,0.401,2.207
		S223.972,212.531,223.972,212.531z"/>
	<path fill="#999999" d="M204.112,200.494l2.406,2.708c0,0-8.928,0.804-12.639,0.201c-3.711-0.604-11.736-2.81-13.141-5.417
		c3.108,0.501,11.937,3.812,17.453,3.41C203.709,200.994,204.112,200.494,204.112,200.494z"/>
	<path fill="#999999" d="M171.309,185.146l3.311-23.272c0,0-3.411,13.742-4.414,16.05c-1.003,2.309-3.912,10.633-6.42,13.241
		s-3.312,5.918-3.411,7.423c1.604-2.207,6.12-3.812,7.925-3.41c1.805,0.402,3.109,2.106,3.109,2.106L171.309,185.146z"/>
	<path fill="#999999" d="M122.959,102.492c0.301,0.201,2.105,3.511,2.508,3.912c0.402,0.401,1.706,0.201,1.706,0.201l7.323,5.316
		l-9.63-2.207l-2.509,2.508l-21.566,15.047c0,0-9.529,2.207-9.229,1.705c0.301-0.502,0.803-2.307,0.803-2.307
		s12.057-3.086,16.25-6.721C119.148,110.817,122.959,102.492,122.959,102.492z"/>
	<path fill="#999999" d="M122.859,62.97c0,0-10.03,4.514-10.131,5.417c-0.1,0.903,1.705,1.304,1.705,1.304s-4.313,0.602-4.414-0.501
		c-0.101-1.103,11.034-7.323,12.238-8.226c1.204-0.903,14.746-8.226,14.746-8.226l-7.624,7.624c0,0-1.404,1.504-2.809,1.806
		C125.165,62.47,122.859,62.97,122.859,62.97z"/>
	<path fill="#999999" d="M101.493,52.537c0.4,0.301,2.809-5.216,3.009-4.815s0.702,5.718,0.702,5.718s0-6.721-0.401-6.721
		C104.403,46.719,101.493,52.537,101.493,52.537z"/>
	<path fill="#999999" d="M125.868,64.775c0,0-3.21,1.906-2.708,2.307s14.043-2.508,15.647-3.11c1.605-0.602,19.06-8.727,19.06-8.727
		s-29.491,10.131-31.097,9.831C125.166,64.776,125.868,64.775,125.868,64.775z"/>
	<path fill="#999999" d="M166.393,58.255c0,0-20.563,8.125-20.362,8.627c0.199,0.502,10.532,1.404,17.253,0.802
		c6.72-0.602,20.664-3.009,20.664-3.009l-1.506-1.504c0,0-21.365,2.708-24.375,2.809c-3.009,0.101-8.125,0.802-8.226,0.301
		S166.393,58.255,166.393,58.255z"/>
	<path fill="#999999" d="M182.643,71.095c0,0-9.329-0.1-9.329-1.003c0-0.903,4.614-2.207,5.719-2.207
		c1.104,0,22.067,1.705,26.583,1.204c4.515-0.501,23.874-2.909,23.874-2.909s-12.338,3.511-25.278,4.213s-24.175-0.803-24.375-0.401
		C179.636,70.394,182.643,71.095,182.643,71.095z"/>
	<path fill="#999999" d="M218.254,78.518c0,0,30.494,5.818,30.394,7.122c-0.1,1.304-25.479,2.307-25.479,2.307
		s7.624-1.204,7.624-1.806s-6.721-2.508-6.721-2.508s2.407-0.803,2.407-1.304S218.254,78.518,218.254,78.518z"/>
	<path fill="#999999" d="M336.018,76.111l1.104,1.304c0,0,14.544-0.301,25.679,4.213c11.135,4.514,43.034,21.467,43.034,21.467
		s-29.594-19.46-43.637-23.373S336.018,76.111,336.018,76.111z"/>
	<path fill="#999999" d="M507.046,89.552c0,0,9.528,3.31,11.335,3.812c1.806,0.502,13.241,2.107,13.241,2.107
		s-10.031-2.308-12.438-3.11C516.777,91.559,507.046,89.552,507.046,89.552z"/>
	<path fill="#999999" d="M169.336,202.55c0.753,0.401,3.665-1.153,4.468-3.664c0.803-2.51,3.212-2.66,0.201-3.966
		s-2.812,1.605-3.213,2.812S168.583,202.148,169.336,202.55z"/>
	<path fill="#999999" d="M277.195,241.399l3.044,7.677h10.191l-3.044-3.375c0,0-1.324-0.794-3.44-0.662
		c-2.117,0.132-2.449,0.793-3.574-0.133S277.195,241.399,277.195,241.399z"/>
	<path fill="#999999" d="M264.157,236.369c1.045-0.059,3.375,2.382,3.177,3.11c-0.198,0.728-1.854,2.515-4.302,2.315
		c-2.449-0.199-3.905-1.984-3.905-2.581C259.127,238.618,262.965,236.436,264.157,236.369z"/>
</g>
<g id="Layer_3">
	<path fill="#666666" d="M101.923,46.97c0,0-11.805,25.348-13.542,32.639s-11.459,8.333-13.542,12.153
		c-2.083,3.82-3.819,22.222-9.027,27.083c-5.208,4.861-14.931,14.236-17.708,18.75c-2.776,4.514-3.472,9.375-3.472,9.375
		l2.778-0.694l0.693,7.292l3.819-1.043l1.042,3.82c0,0,3.472-1.041,5.208-2.777s1.042-13.542,7.292-19.098
		c6.25-5.556,6.945-13.542,18.75-12.5c8.654,0.764,19.098-11.111,20.833-12.153s12.5-9.722,12.847-12.847
		c0.348-3.125,2.432-5.208,4.861-3.472c2.43,1.736,17.361,16.319,21.528,18.75s23.61,13.542,23.61,17.014s-0.693,6.944-1.735,7.639
		c-1.042,0.695-0.348,4.861-0.348,4.861s12.153-15.625,13.194-13.542s-5.903,9.028-6.25,13.542s1.736,11.806,1.736,11.806
		l27.431,32.639c0,0-16.667-22.568-19.097-25.693c-2.431-3.125-12.5-13.194-2.778-7.986s21.875,13.195,26.389,11.111
		c4.515-2.084,2.431-4.861-0.694-8.682s-7.292-11.111,0.347-19.097c7.639-7.986,14.236-20.833,27.778-19.097
		s38.889,4.514,48.61,4.167c9.723-0.347,26.737-6.25,28.82-6.25s10.765,2.778,15.625,2.778c4.859,0,10.416-0.348,14.234,1.736
		c3.819,2.084,5.557,3.473,5.557,3.473s12.5-3.82,15.625-4.167c3.125-0.347,37.151-3.125,43.056-2.778s35.418,9.375,40.278,9.722
		c4.859,0.347,13.541-2.43,15.276-4.861c1.736-2.431-1.389-4.514-1.389-4.514l1.736-4.514l-3.82-0.694l6.945-5.556l-3.475-1.736
		c0,0-0.348-6.597,5.208-7.986c5.557-1.389,6.25-8.334,34.724-0.695c28.473,7.639,41.317,11.806,52.083,10.764
		c10.765-1.042,16.667-2.778,20.485-5.903c3.819-3.125,7.292-8.681,7.292-8.681s-14.235,6.945-20.485,7.639
		s-10.765,5.556-42.015-3.125s-41.667-10.069-47.917-8.333s-18.751,2.777-19.792,11.111s-0.81,17.129-3.125,19.445
		c-5.208,5.208-11.805,7.639-32.291-4.167c-22.209-12.799-30.901-20.833-53.125-26.736c-22.223-5.903-21.182-2.431-24.652-2.778
		c-3.472-0.347-8.333-4.167-10.765-3.472c-2.431,0.695-43.749,11.111-51.041,11.806c-7.292,0.695-47.223-3.473-50.348-3.82
		s-15.277-3.125-7.639-4.514s-12.5-6.944-18.055-6.944c-5.556,0-81.945-0.348-84.724-1.042c-2.777-0.694,0.349,6.945,0.349,6.945
		s-5.556-4.514-6.598-5.208c-1.042-0.694-5.208-2.083-5.208-2.083s-1.389,7.292-3.472,7.986c-2.083,0.694-13.889,3.473-5.556-7.292
		c8.333-10.765,13.193-19.098,3.818-10.07s-2.777-1.042-2.777-1.042L101.923,46.97z"/>
	<path fill="#666666" d="M179.577,169.039c-3-1-1.167,3-2,3.833s-7.667,9.5-7.833,11s-0.333,9.499,0.167,10.333s1,3.5,0.667,4.167
		s-2.328,2.955-1.667,3.667c2.167,2.333,5.333-2.667,6.5-5.834c0.566-1.54,2.5-2.5,2.5-2.5s-3.5,0.5-4.333-1.833
		s-1.167-4.834,3-11.667S182.577,170.039,179.577,169.039z"/>
	<path fill="#666666" d="M206.744,181.539c-1.167,0-1.833,1-2.333,1s-1.667,0.5-1.667,0.5s2.333,8.667,4,9.5s3.5,2.834,3,6
		s1.667-3.834,3.833-3.834s10.333,0.167,12.833-3.333c0,0-1.333-0.667-3-3s-2.833-4.667-4.333-5.167s-4.333-0.499-6.5-0.666
		S206.744,181.539,206.744,181.539z"/>
	<path fill="#666666" d="M283.744,212.705c0,0-26.5,12.5-30.833,13.334c-2.709,0.521-3.833,3-4.5,3.333s-9.833,0.999-11,1.833
		s-5.666,6.333-6.333,7s-6.833,3.5-6.833,3.5s-0.5,9.334,1,9.834s4-1.5,5.167-4s0.5-7.001,1.667-8.334s15.833-7.5,16.333-7.5
		s4.5-0.667,5.667-1.5S283.744,212.705,283.744,212.705z"/>
	<path fill="#666666" d="M272.077,238.205c-1-0.333-4,1.834-6,2.667s-7.666-1.833-7.666-1.833l9.167-8.167l-10.5,7.833
		c0,0,4.833,4.333,5.833,4.5s7.167-2.166,7.667-2.166s1.167,1.666,1.167,1.666s1.667-0.666,2.833,0.167s5.666,7.167,5.666,7.167
		s12.5,0.666,13.333,0.666s4.5,1.667,4.5,1.667l-4.5-4.833c0,0-0.333,0.334-1.833,0.5s-10.667,0.333-10.667,0.333
		s-3.667-6.334-4.167-7.167s-3.833-1.833-3.833-1.833L272.077,238.205z"/>
	<path fill="#666666" d="M337.908,148.372c0,0-9.834,24.515-11.742,28.625c-1.909,4.11-8.955,15.854-14.533,17.762
		c-5.578,1.908-7.34-1.173-8.074-1.761s-3.229-0.146-3.376,1.761c-0.146,1.908-0.146,6.166-0.146,6.166s7.633-2.056,9.981-2.643
		s11.157-8.368,12.625-10.423c1.468-2.056,6.606-6.166,7.193-6.899s2.642-5.283,2.936-5.871s3.669-6.897,3.816-8.808
		c0.146-1.91,3.512-9.698,2.202-9.249C333.652,158.794,337.908,148.372,337.908,148.372z"/>
</g>
<g id="Layer_4">
	<path fill="#333333" d="M96.02,60.859c0,0-2.083,4.861-2.083,7.986s2.431,4.861,0.694,7.292c-1.736,2.431,4.167-3.472,6.25-7.639
		s2.431-7.986,2.431-7.986s-4.167,4.167-6.597,6.945S96.02,60.859,96.02,60.859z"/>
	<path fill="#333333" d="M92.548,84.47c0,0-1.39,5.556-0.695,7.986c0.695,2.43,8.333,6.944,6.598,13.194
		c-1.736,6.25-1.39,10.069-1.39,10.069s18.056-12.153,20.14-17.708c2.084-5.555-1.041-11.458-2.431-13.542
		c-1.389-2.084-11.806-8.68-11.806-8.68s0,6.597-3.125,8.681S92.548,84.47,92.548,84.47z"/>
	<path fill="#333333" d="M115.811,76.484c0,0-1.042,0,0,2.777c1.042,2.777,6.598,13.889,6.598,13.889s-1.39-1.389-2.432-1.042
		c-1.042,0.347-7.292-12.5-7.292-12.5l-0.693-4.167L115.811,76.484z"/>
	<path fill="#333333" d="M125.534,77.179c0,0,49.652-1.39,55.208-1.042c5.555,0.348,32.292,4.167,32.292,4.167
		s-3.473-1.736-6.598,3.472s-12.152,18.75-15.625,19.097c-3.472,0.347-26.042-12.848-31.943-14.583
		C152.966,86.555,125.534,77.179,125.534,77.179z"/>
	<path fill="#333333" d="M219.978,88.984c0,0-14.93,28.819-16.667,34.722c-1.736,5.903,2.083,14.236,2.083,14.236
		s13.89-20.833,20.14-21.528s42.708,5.208,53.125,4.514c10.417-0.694,30.556-5.556,31.944-5.556s17.013,2.778,19.791,2.431
		c2.778-0.347,12.848-0.348,15.973,4.861c0,0,22.57-6.25,32.292-6.597c9.723-0.347,33.681-1.389,36.806-0.347
		s-35.068-22.917-42.36-25s-31.598-7.292-35.417-6.944c-3.819,0.348-9.375-3.125-11.806-2.778
		c-2.432,0.347-33.739,7.74-44.444,10.417C264.77,95.581,219.978,88.984,219.978,88.984z"/>
	<path fill="#333333" d="M262.494,182.539c0,0-5.5,8.625-7.375,9.25s-9.25,2.75-9.875,4.125s-2,4-2.875,4s-5.5-1.5-5.5-1.5
		l3.625,6.5c0,0,4.666,1.328,6.625-7c0.5-2.125,5.5-3.25,6.125-3.25s4.25,0.25,4.625-0.125s7.75-8.75,8.625-11
		s-1.5,0.375-2.75,0.375S262.494,182.539,262.494,182.539z"/>
	<polygon fill="#333333" points="228.369,191.039 222.369,194.539 224.869,194.039 232.369,197.539 230.244,193.039 
		227.744,192.039 	"/>
	<path fill="#333333" d="M216.119,182.789c0,0,1.875,2.75,1.875,4s-1.5,5.625,0.375,6.375s5.25-0.875,5.25-0.875l2.75-1.25
		c0,0-1.75-0.5-3.25-2.75s-2-4.375-3-4.625S216.119,182.789,216.119,182.789z"/>
	<path fill="#333333" d="M240.994,211.289c0,0,7.625,9,7.125,9.75s-5.375,3.75-5.375,3.75s7.75-1.375,8-2
		S240.994,211.289,240.994,211.289z"/>
	<path fill="#333333" d="M284.119,212.539c0,0-27.25,17-29.75,17.75s-9.625,3.875-10.5,4.125s-0.875,0.25-0.875,0.25l-0.25-3.75
		c0,0,3.625,0.25,5.125-1.125s13.875-9,13.875-9s-7.437,4.643-7.655,5.384S284.119,212.539,284.119,212.539z"/>
	<path fill="#333333" d="M208.244,200.289c0,0,5.375,9.625,5.75,10.25s6,3.5,9.375,4.125s7.125,3.875,7.125,3.875l6.875,4l3.25,1.75
		c0,0-13.375-10-15.25-10.625s-5.625,0.375-7.625-1.75s-3.25-4.25-4.375-5.875S208.244,200.289,208.244,200.289z"/>
	<path fill="#333333" d="M190.119,204.914c0,0-7.125-1.625-10.375-1.375s-7.875,3.75-9.75,3s-2.75-2.125-2.75-2.125s-3-1-4-1.75
		s-2.488-4.527-2.869-4.076s-2.256,0.451-2.256,0.451l10.25,8.625h7l9-1.875L190.119,204.914z"/>
	<path fill="#333333" d="M171.369,154.539c0.75,1.5,19.75,19.5,19.75,19.5s-13.375-17-14.5-18.25s-11.125-13-11.125-13
		L171.369,154.539z"/>
	<path fill="#333333" d="M165.744,137.289c0,0-15-13.875-19-16.625s-12.625-9-12.625-9l-9.5-2.125c0,0,10.75,4.375,12.625,5.625
		S165.744,137.289,165.744,137.289z"/>
	<path fill="#333333" d="M125.244,109.414c0,0-6.75,8.25-9.875,10.375s-11.5,7-14.125,7.625s-14.25,3.5-15.625,4.5
		s-14.75,14.75-17.125,17.5s-4.25,8.25-5.75,9.25s-8,1.875-8.375,1.875s-2.875-0.625-2.875-0.625s7.875,0.125,10-3.25
		s2.625-5.75,2.625-5.75s1.75-5,2.375-5.75s11.25-13.375,15.125-14.5s16.375-2.125,25.5-7.125S125.244,109.414,125.244,109.414z"/>
	<path fill="#333333" d="M139.994,64.289c-1.319,1.508,14-3.5,15.125-4.375s3-5.125,3-5.125S140.869,63.289,139.994,64.289z"/>
	<path fill="#333333" d="M125.369,63.039c1.5-0.75,3.125-2.125,3.125-2.125s-1.375-0.875-2.375-0.5s-4.125,2.375-4.125,2.375
		L125.369,63.039z"/>
	<path fill="#333333" d="M95.119,57.539l2-0.625l5-9.5c0,0-3.75,4-4.25,5.125S95.119,57.539,95.119,57.539z"/>
	<path fill="#333333" d="M181.869,63.414l0.5,1.625c0,0,10.25-1.125,18-3.5s18-6.75,18-6.75s-15.25,3.75-18.75,4.375
		S181.869,63.414,181.869,63.414z"/>
	<path fill="#333333" d="M196.369,68.914l40.5-4.125c0,0-9.125,4-18,4.75s-21.25,0.25-21.25,0.25L196.369,68.914z"/>
	<path fill="#333333" d="M207.869,76.789c0,0,16.75,4.25,16.875,5s-1.5,1.25-1.5,1.25l7.75,3.375l-7.25,0.375l1.875,1.25l-6-1.5
		l5.75-1.25l-4.125-2.125l0.375-1.5L207.869,76.789z"/>
	<path fill="#333333" d="M580.369,91.539c0,0-5.75,8.875-10.125,10.875s-11.125,6.125-26.75,3.625s-33.375-8-42.625-10.375
		s-24.5-6.125-30-3.125s-9.75-0.375-6.5-2.5s10-2.75,13.375-2.25s29.75,4.875,32.375,5.625s28.375,10,39.625,8.125
		s20.25-5.5,23.125-7.625S580.369,91.539,580.369,91.539z"/>
	<path fill="#333333" d="M582.619,93.164c-0.25,0.625,0.375,6.625,0.375,6.625l1.375-2.125c0,0-1.625,6.5-4.25,10
		s-10.75,12.125-23.75,15.125s-42.375,2.125-53.125-3s-17.375-5.875-19.375-5.25s-10.875,15.5-13.375,16.875s-10.125,5.625-29.25,4
		s-23.125,2.375-26.125,6.25s-14.75,21.625-17.375,23.75s-16.875,17.375-29.75,20.875s-18.375,9.375-21.75,10.75
		s-15.75,13.875-19.875,15.5s-16.5,3-22,3.75s-26,6.5-26,6.5s22.75-8.5,26.25-9.25s17.25-1.625,19.875-3s11.125-9.75,14.25-11.875
		s26.875-13.625,29.875-15.25s23.375-16.375,30.875-26s15-23.25,17.875-24.25s14.75-1.125,17.75-0.5s18.401-0.035,24.25-1.75
		c9.375-2.75,15.875-18.75,17.75-19.75s7-2.125,7.875-2s16.75,5.5,18.625,6.125s16,4,16,4l-10.5-4.25c0,0,19.5,7.75,37.75,4.375
		s25.201-8.633,28.375-12C581.369,100.914,582.619,93.164,582.619,93.164z"/>
	<path fill="#333333" d="M272.869,204.664l5.5-0.25c0,0-7.625,6.375-8.875,7.25s-13.5,8-12.375,6.875
		S272.869,204.664,272.869,204.664z"/>
	<path fill="#333333" d="M243.994,210.914l9.25,9.125c0,0-1.625-1.875,1.25-4.75s1.875-3.5,1.875-3.5l-4.25,2.625L243.994,210.914z"
		/>
	<path fill="#333333" d="M194.744,200.789c0,0-0.5,2.125-1.125,1.875s-9.125-0.375-12.625-4.375
		C185.744,200.539,194.744,200.789,194.744,200.789z"/>
	<path fill="#333333" d="M179.744,168.789c-0.875,0.125-2.25,5-3.125,5.875s-5.125,7.375-5.5,8.75s-0.25,6.25-0.625,6.75
		s-0.875,3.5,0,4.25s2.75,0.25,3,0.875s1,2.625,1,2.625s0.625-2,1.25-2.625s2.5-1.875,2.5-1.875s-2.625-0.125-3.125-1.25
		s-0.875-2-0.875-2s-1.75-0.375-1.5-1.625s2.625-5.75,4.125-7.75s4.125-8.625,4.25-9.875S179.744,168.789,179.744,168.789z"/>
	<polygon fill="#333333" points="175.619,161.914 184.119,170.164 174.744,187.539 177.119,186.664 182.119,177.289 
		186.369,170.539 189.494,172.539 	"/>
	<path fill="#333333" d="M61.244,141.789c0,0-1.125,2-2.25,5.875s-1.875,7-1.875,7s1.625-0.125,2.375-2.125s0.125-4.25,0.375-5.5
		S61.244,141.789,61.244,141.789z"/>
	<path fill="#333333" d="M53.119,138.914c2.375,1.5-2.875,6.125-3.75,5.75S50.707,137.391,53.119,138.914z"/>
	<polygon fill="#333333" points="46.619,157.289 50.244,155.914 50.244,158.789 	"/>
	<polygon fill="#333333" points="41.619,150.039 44.619,149.039 45.369,149.539 44.494,151.914 	"/>
	<path fill="#333333" d="M165.619,53.039c0,0-6.375,7-8.5,7.75s-14.875,5.625-12.875,4.875s6.125-1.875,8.25-2.125
		s6.375-2.875,9.5-3.75s6.25-3.125,6.25-3.125l1.75-5.5l-5,3.875L165.619,53.039z"/>
	<path fill="#333333" d="M256.619,86.914c0.985,3.748-18.25,2-18.25,2s12.5,0.125,12.75-1.5s-20.875-6.375-20.875-6.375
		S255.994,84.539,256.619,86.914z"/>
	<path fill="#333333" d="M294.494,79.164c0,0,21.125-3.375,25.125-3.5s20.125-0.25,20.125-0.25l-2.75-2.625l-19.25,1.5
		L294.494,79.164z"/>
	<path fill="#333333" d="M416.869,117.914c0,0,17.5,6.5,21.375,6.875s11.75,1.375,15.375-0.625s4.625-2.875,4.125-4.5
		s-2.125-2.125-1.75-3.5s0.875-2,0.375-2.5s-2.125-1-1.375-2.625s2.75-2.75,3.125-3.625s-1.5-1.75,0.875-3.5s2.875-2.125,2.75-3
		s-0.125-2.375,0.625-3.125s1.875-2.125,2.125-2.5s-2-1.125-2.125-2.125s-1.5,0.25-2,1s-4.25,6.875-4.75,9.875
		s-2.25,11.75-3.75,14.75s-4.25,4.375-6.5,3.75s-0.25-2.125-0.25-2.125s-2.75,2.375-6.375,2.5S416.869,117.914,416.869,117.914z"/>
	<path fill="#333333" d="M346.573,197.982l-1.195,2.024l3.223-2.578l-20.992,28.634c0,0-12.061-4.513-15.007-5.248
		c-2.946-0.736-10.68-3.774-12.337-3.498c-1.657,0.275,9.667-0.922,12.153-1.197c2.485-0.275,12.061,0.736,13.258,0.276
		s3.868-3.867,4.696-5.248C331.198,209.766,346.573,197.982,346.573,197.982z"/>
</g>
<g id="Finition">
	<path fill="#AFDFE4" d="M60.908,118.77c-0.418-0.418,1.302-4.974,1.302-4.974s-10.065,12.553-13.499,17.763
		s-5.921,7.342-5.921,7.342s2.25-1.066,2.604-0.474c0.355,0.592,0.71,2.013,0.71,2.013s2.368-5.092,3.908-6.868
		c1.54-1.776,8.289-8.408,9.592-9.355c1.304-0.947,3.435-4.263,3.908-4.973C63.988,118.534,61.619,119.481,60.908,118.77z"/>
	<path fill="#AFDFE4" d="M72.631,88.694l1.421,1.658c0,0,5.921-3.435,6.868-3.79s2.723-2.368,3.552-3.079s2.725-2.605,2.725-2.605
		s-1.896-0.355-1.658-1.421c0,0-3.197,1.539-6.039,3.434S72.631,88.694,72.631,88.694z"/>
	<path fill="#AFDFE4" d="M121.418,75.431c-1.186-0.237-11.959-1.895-12.907-2.96c0.237,0.829,2.842,3.434,2.842,3.434
		s-2.961-0.474-3.553-1.421c-0.592-0.947-1.54-2.487-0.947-2.96c0.594-0.473,0.71-1.776,0.71-1.776l-2.25-0.474
		c0,0-1.775,3.553-1.775,4.263s-0.236,1.776,0.592,2.131s6.631,1.895,9.236,6.513c0,0-2.369-4.855-1.066-6.039
		S121.418,75.431,121.418,75.431z"/>
	<path fill="#AFDFE4" d="M171.626,71.405c0,0-2.96,1.42-5.921,2.013c-2.961,0.593-13.381,1.54-13.381,1.54
		c4.5,1.303,27.709-0.237,31.38-0.237s21.67,1.895,23.563,2.131c1.895,0.236,3.79-0.355,3.79-0.355l3.315,0.71
		c0,0,2.96,1.184,3.434,1.302c0.475,0.118,38.958,7.697,38.723,8.763c-0.236,1.066-23.92,1.54-23.92,1.54
		c4.854,2.131,45.234,6.158,46.773-0.237s-20.604-5.803-24.63-6.158s-18.354-1.895-19.656-2.131
		c-1.302-0.236-13.381-3.079-14.684-3.671c-1.303-0.592-14.684-3.79-16.814-3.908S171.626,71.405,171.626,71.405z"/>
	<polygon fill="#AFDFE4" points="149.601,65.129 182.52,59.208 222.426,52.458 185.718,61.34 	"/>
	<path fill="#AFDFE4" d="M279.501,82.654c0,0,17.17,1.065,18.354,1.065c1.185,0,12.789-3.316,17.289-3.908s9.71-2.723,9.71-2.723
		s-0.474,1.303,0,1.658c0.475,0.355,6.157,2.487,6.157,2.487l6.513,1.539c0,0,19.776,2.961,21.789,3.553
		c2.013,0.592,30.668,11.249,45.115,20.604s25.934,16.104,29.723,16.104s9.117-0.592,10.895-2.487
		c1.776-1.895,1.658-4.381,1.658-4.381l-2.605-2.96c0,0-0.474,3.552-2.25,4.145c-1.776,0.593-7.223,4.026-15.985-0.118
		c-8.762-4.144-31.261-22.499-39.669-26.17s-24.512-12.789-37.419-13.144c0,0-2.014,1.184-1.065,2.724
		c0.947,1.54,2.367,1.658,2.25,2.131c-0.118,0.473-4.146,0.593-4.264-1.539c0,0-2.486-0.237-3.553-0.237s-4.973-0.593-6.275-1.658
		c-1.302-1.065-4.736-2.012-4.382-2.96c0.355-0.948,0.829-2.368,0.829-2.368s-9.354-0.355-22.735,2.96
		S279.501,82.654,279.501,82.654z"/>
	<path fill="#AFDFE4" d="M452.386,87.746c0,0-3.435,1.184-2.96,2.131c0.474,0.947,8.882-1.302,11.013-1.539
		c2.131-0.237,5.685-0.237,5.685-0.237s-0.593-1.658,0.354-2.605c0.947-0.947,4.263-3.789,4.263-3.789s-7.104,0.237-11.485,1.776
		S452.386,87.746,452.386,87.746z"/>
	<path fill="#AFDFE4" d="M473.108,82.181c0,0-4.025,2.723-4.263,3.552c-0.237,0.829-0.829,2.132-0.474,2.132
		c0.354,0,4.264-1.421,6.275-1.54c2.012-0.119,5.685-0.119,5.685-0.119l-0.593,1.066h2.604v-1.303l1.185-1.065l-1.303-2.013
		L473.108,82.181z"/>
	<path fill="#AFDFE4" d="M487.318,83.365l7.343,5.21c0,0,20.25,6.275,23.327,7.341c3.078,1.066,19.42,5.566,21.314,5.21
		c1.894-0.356,4.5-4.736,4.974-5.092c-1.422-0.119-3.908-0.592-8.408-1.776c-4.498-1.184-20.248-5.092-26.88-6.276
		C502.357,86.798,487.318,83.365,487.318,83.365z"/>
	<path fill="#AFDFE4" d="M547.116,96.39c0.118,0.474,0.593,4.5-0.354,4.855s4.501,0.592,7.697-0.119
		c3.195-0.711,10.894-3.552,10.894-3.552s-6.038,0.829-8.052,0.237c-2.014-0.592-3.436-2.013-3.436-2.013L547.116,96.39z"/>
	<path fill="#AFDFE4" d="M556.945,93.904c0,0-0.71,1.776,2.132,2.131c2.843,0.355,6.867,0,9.117-0.474s9.711-4.5,10.776-6.395
		s1.065-2.605,1.065-2.605s-8.526,1.184-12.789,3.079C562.983,91.535,556.945,93.904,556.945,93.904z"/>
	<path fill="#AFDFE4" d="M586.053,86.207l-3.197,1.184c0,0,3.67,6.276-0.119,13.381s-9.234,17.051-23.327,21.314
		c9.354-3.552,22.269-9.064,26.524-21.67C589.013,91.299,586.053,86.207,586.053,86.207z"/>
	<path fill="#AFDFE4" d="M261.739,219.778c14.268-8.242,24.984-15.868,32.208-24.157c0,0-31.381,27.472-51.511,30.433l-0.592,2.015
		l-4.025,0.71l-4.736,3.196l0.947,0.475c0,0,3.434-2.249,8.406-2.96l1.304-1.539C243.74,227.949,252.436,225.152,261.739,219.778z"
		/>
	<path fill="#AFDFE4" d="M234.858,240.619c1.066-0.592,7.461,0.474,8.053,0.829c0.592,0.354,2.131,2.013,2.131,2.013
		s-1.895,0.475-4.973-0.118c-3.079-0.592-5.447-0.711-5.447-0.711L234.858,240.619z"/>
	<path fill="#AFDFE4" d="M276.895,240.855c0,0,1.421,2.724,2.487,3.196c1.066,0.474,4.026,0.594,5.565,1.066
		s4.617,2.249,5.446,4.024c0.829,1.776-9.473,0.712-9.473,0.712s-3.197-1.657-3.197-3.907S276.895,240.855,276.895,240.855z"/>
	<path fill="#AFDFE4" d="M206.675,249.382c0.474,0.829,0.829,2.725,0.829,2.725s3.671-2.25,4.854-4.146
		c1.185-1.895,1.539-3.79,3.079-4.5s9.947-2.367,11.25-2.96c1.304-0.593,1.54-2.132,1.54-2.132s-1.895,0.593-6.986,1.658
		c-5.093,1.064-8.645,2.724-9.947,4.735C209.991,246.775,206.675,249.382,206.675,249.382z"/>
	<path fill="#AFDFE4" d="M167.717,176.32c0.679,0.971,2.605,0.354,2.605,0.354s-1.776,7.225-3.197,8.764s-5.21,7.224-5.21,7.224
		s0.592-1.896,0.118-2.369c-0.475-0.473-2.25,0.948-2.131,0.593c0.118-0.354,0.236-3.196,1.657-5.092
		c1.421-1.895,3.079-3.314,3.79-4.974s0.947-7.696,0.947-8.407C166.296,172.413,166.889,175.136,167.717,176.32z"/>
	<path fill="#AFDFE4" d="M209.044,97.93c0.8,1-6.631,11.842-15.157,14.92c0.829-2.013,3.435-6.276,6.75-9.355
		C203.953,100.416,208.571,97.338,209.044,97.93z"/>
</g>
</svg>
